<svg width="39" height="39" viewBox="0 0 39 39" fill="none" xmlns="http://www.w3.org/2000/svg">
<path d="M35.9609 0.000794771C35.887 0.00322477 35.8134 0.00974459 35.7402 0.0203246H23C22.2787 0.0101246 21.6078 0.389074 21.2442 1.01207C20.8806 1.63507 20.8806 2.40558 21.2442 3.02858C21.6078 3.65158 22.2787 4.03053 23 4.02033H31.1719L17.5859 17.6063C17.0635 18.1079 16.853 18.8528 17.0357 19.5537C17.2184 20.2546 17.7658 20.8019 18.4666 20.9846C19.1675 21.1673 19.9124 20.9569 20.4141 20.4344L34 6.84845V15.0203C33.9898 15.7416 34.3687 16.4125 34.9917 16.7761C35.6147 17.1397 36.3852 17.1397 37.0082 16.7761C37.6312 16.4125 38.0102 15.7416 38 15.0203V2.26642C38.0781 1.68484 37.8969 1.0983 37.5043 0.662134C37.1118 0.225964 36.5475 -0.0158352 35.9609 0.000794771ZM7.5 3.02032C3.38269 3.02032 0 6.40301 0 10.5203V30.5203C0 34.6376 3.38269 38.0203 7.5 38.0203H27.5C31.6173 38.0203 35 34.6376 35 30.5203V21.0203C35.0102 20.299 34.6312 19.6282 34.0082 19.2645C33.3852 18.9009 32.6147 18.9009 31.9917 19.2645C31.3687 19.6281 30.9898 20.299 31 21.0203V30.5203C31 32.467 29.4467 34.0203 27.5 34.0203H7.49999C5.5533 34.0203 3.99999 32.467 3.99999 30.5203V10.5203C3.99999 8.57363 5.5533 7.02032 7.49999 7.02032H17C17.7212 7.03052 18.3921 6.65157 18.7558 6.02857C19.1194 5.40557 19.1194 4.63506 18.7558 4.01206C18.3921 3.38906 17.7213 3.01011 17 3.02031L7.5 3.02032Z" fill="#CE8EFF"/>
</svg>
