<svg xmlns="http://www.w3.org/2000/svg" xmlns:xlink="http://www.w3.org/1999/xlink" viewBox="0,0,256,256" width="48px" height="48px" fill-rule="nonzero"><defs><linearGradient x1="21.175" y1="10.027" x2="25.872" y2="33.258" gradientUnits="userSpaceOnUse" id="color-1"><stop offset="0" stop-color="#00f7ff"></stop><stop offset="0.998" stop-color="#00979c"></stop></linearGradient></defs><g fill="url(#color-1)" fill-rule="nonzero" stroke="none" stroke-width="1" stroke-linecap="butt" stroke-linejoin="miter" stroke-miterlimit="10" stroke-dasharray="" stroke-dashoffset="0" font-family="none" font-weight="none" font-size="none" text-anchor="none" style="mix-blend-mode: normal"><g transform="scale(5.33333,5.33333)"><path d="M36,36c-5.018,0 -9.425,-3.859 -12,-7.714c-2.575,3.855 -6.982,7.714 -12,7.714c-6.617,0 -12,-5.383 -12,-12c0,-6.617 5.383,-12 12,-12c5.935,0 9.884,4.448 12,7.755c2.116,-3.307 6.065,-7.755 12,-7.755c6.617,0 12,5.383 12,12c0,6.617 -5.383,12 -12,12zM26.181,24.037c1.647,3.577 5.819,7.963 9.819,7.963c4.411,0 8,-3.589 8,-8c0,-4.411 -3.589,-8 -8,-8c-5.416,0 -8.801,5.954 -9.819,8.037zM12,16c-4.411,0 -8,3.589 -8,8c0,4.411 3.589,8 8,8c4.017,0 8.206,-4.422 9.823,-7.963c-0.986,-2.019 -4.378,-8.037 -9.823,-8.037zM16,24.5v-1c0,-0.276 -0.224,-0.5 -0.5,-0.5h-7c-0.276,0 -0.5,0.224 -0.5,0.5v1c0,0.276 0.224,0.5 0.5,0.5h7c0.276,0 0.5,-0.224 0.5,-0.5zM39.5,23h-2.5v-2.5c0,-0.276 -0.224,-0.5 -0.5,-0.5h-1c-0.276,0 -0.5,0.224 -0.5,0.5v2.5h-2.5c-0.276,0 -0.5,0.224 -0.5,0.5v1c0,0.276 0.224,0.5 0.5,0.5h2.5v2.5c0,0.276 0.224,0.5 0.5,0.5h1c0.276,0 0.5,-0.224 0.5,-0.5v-2.5h2.5c0.276,0 0.5,-0.224 0.5,-0.5v-1c0,-0.276 -0.224,-0.5 -0.5,-0.5z"></path></g></g></svg>