<svg width="99" height="104" viewBox="0 0 99 104" fill="none" xmlns="http://www.w3.org/2000/svg">
<path d="M99 52.1283C99 46.9306 96.452 42.2413 92.5107 39.3152C92.7843 38.2205 92.9605 37.1 92.9605 35.9559C92.9605 30.0849 89.3089 25.0778 84.1944 23.1122C84.3753 22.3071 84.5004 21.4902 84.5004 20.6498C84.5004 14.7977 79.9841 10.0425 74.3109 9.67052C70.6895 3.30279 66.6067 0.0306487 62.1599 4.59703e-05C56.1922 -0.0187865 51.4788 5.75337 49.5035 8.61825C47.5374 5.75807 42.8449 4.59703e-05 36.9097 4.59703e-05C36.8865 4.59703e-05 36.8656 4.59703e-05 36.8424 4.59703e-05C32.3957 0.0330028 28.3129 3.30279 24.6915 9.67052C19.0182 10.0425 14.5019 14.7977 14.5019 20.6498C14.5019 21.4832 14.6271 22.3024 14.8079 23.1122C12.7051 23.9196 10.8527 25.2379 9.39898 26.9281C9.38507 26.9446 9.36421 26.9517 9.3503 26.9681C9.34102 26.9799 9.34102 26.994 9.33175 27.0058C7.2892 29.4117 6.04419 32.5378 6.04419 35.9583C6.04419 37.0953 6.21807 38.2182 6.48933 39.3199C2.54565 42.246 0 46.9353 0 52.1307C0 56.2879 1.59741 60.1486 4.29608 63.0441C2.89806 65.2546 2.12602 67.7734 2.12602 70.4264C2.12602 74.6308 4.05496 78.5903 7.2892 81.1915C7.28688 81.2057 7.27761 81.2151 7.27761 81.2292C7.20573 81.8036 7.164 82.3921 7.164 82.9924C7.164 90.4665 13.0737 96.5541 20.3954 96.7165C23.0825 101.218 27.8445 104 33.0703 104C37.334 104 41.2985 102.164 44.1177 98.96C45.8032 99.7392 47.6371 100.172 49.4965 100.172C51.3582 100.172 53.1968 99.7392 54.8823 98.9576C57.6018 102.044 61.5409 104 65.932 104C71.1578 104 75.9199 101.218 78.6069 96.7165C85.9286 96.5541 91.8383 90.4689 91.8383 82.9924C91.8383 82.3827 91.7873 81.7847 91.7085 81.1962C94.9474 78.595 96.8763 74.6331 96.874 70.4264C96.874 67.7687 96.1019 65.2498 94.7062 63.0394C97.3585 60.1863 99 56.3515 99 52.1283ZM21.703 44.2493C23.6992 44.2493 25.3221 45.8995 25.3221 47.9287C25.3221 49.9532 23.6992 51.601 21.703 51.601C19.7045 51.601 18.0793 49.9555 18.0793 47.9287C18.0793 45.8995 19.7045 44.2493 21.703 44.2493ZM22.8622 53.8327C25.2062 53.3595 27.0563 51.4833 27.5223 49.1034L35.2798 49.101L36.242 49.6848C36.0519 50.1509 35.9452 50.6617 35.9452 51.1985C35.9452 53.3995 37.7072 55.1862 39.8727 55.1862C41.062 55.1815 42.1424 54.626 42.8797 53.7197L48.3396 57.0342V69.0987L38.055 62.5827C37.8695 62.465 37.6585 62.4038 37.4406 62.4038H26.8917L22.8576 59.0445V53.8327H22.8622ZM39.8727 49.5647C40.7606 49.5647 41.4817 50.2992 41.4817 51.1985C41.4817 51.4574 41.4237 51.7117 41.3101 51.9353C41.0296 52.4838 40.4801 52.8298 39.8703 52.8322C38.9847 52.8298 38.2637 52.0954 38.2637 51.1985C38.2637 50.2969 38.9847 49.5647 39.8727 49.5647ZM16.8203 20.6498C16.8203 15.8546 20.6643 11.954 25.387 11.954C26.8337 11.954 28.2596 12.3259 29.5138 13.0274C30.0749 13.3476 30.7797 13.138 31.0904 12.566C31.3987 11.9987 31.1947 11.2807 30.636 10.9676C29.6043 10.3909 28.4775 10.0095 27.3183 9.79528C30.316 4.89884 33.5178 2.38235 36.854 2.3541C36.8726 2.3541 36.8911 2.3541 36.9097 2.3541C42.7058 2.3541 47.4725 9.68464 48.3443 11.1088V14.7082H43.8256C43.1857 14.7082 42.6664 15.2355 42.6664 15.8852C42.6664 16.535 43.1857 17.0623 43.8256 17.0623H48.3419V41.6598L36.2536 34.8001V29.7859C38.9731 29.2375 41.0319 26.7963 41.0319 23.8749C41.0319 20.5533 38.368 17.8485 35.0943 17.8485C31.8184 17.8485 29.1522 20.551 29.1522 23.8749C29.1522 26.7963 31.2109 29.2351 33.9351 29.7859V35.4898C33.9351 35.9159 34.1623 36.309 34.5286 36.5186L48.3419 44.3576V54.2988L43.763 51.5163C43.77 51.4103 43.8001 51.3068 43.8001 51.2008C43.8001 48.9998 42.0381 47.213 39.8727 47.213C39.0867 47.213 38.3587 47.4555 37.7443 47.8581L36.1979 46.9188C36.0171 46.8081 35.8107 46.7516 35.6021 46.7516L27.5246 46.754C27.0586 44.3693 25.2085 42.4908 22.8622 42.0176V37.4084C22.8622 37.06 22.7092 36.7281 22.4449 36.5044L11.9655 27.6438C13.9686 25.7511 16.6325 24.567 19.5793 24.567C20.2192 24.567 20.7385 24.0397 20.7385 23.39C20.7385 22.7402 20.2192 22.2129 19.5793 22.2129C18.7075 22.2129 17.859 22.3047 17.0313 22.4648C16.9061 21.8669 16.8203 21.2619 16.8203 20.6498ZM35.0943 27.5496C33.0981 27.5496 31.4706 25.9018 31.4706 23.8726C31.4706 21.8481 33.0958 20.2002 35.0943 20.2002C37.0905 20.2002 38.7134 21.8457 38.7134 23.8726C38.7134 25.9018 37.0905 27.5496 35.0943 27.5496ZM9.48477 82.9877C9.48477 82.8723 9.50331 82.764 9.50563 82.651C11.3998 83.6374 13.4934 84.1647 15.6611 84.1647C16.301 84.1647 16.8203 83.6374 16.8203 82.9877C16.8203 82.338 16.301 81.8106 15.6611 81.8106C13.3288 81.8106 11.0938 81.0903 9.19728 79.7297C9.19496 79.7273 9.19496 79.7273 9.19264 79.7249L17.5738 73.901C17.8891 73.6797 18.0793 73.3172 18.0793 72.9288V68.8586C19.6767 68.3525 20.8475 66.853 20.8475 65.0686C20.8475 62.8699 19.0855 61.0832 16.92 61.0832C14.7546 61.0832 12.9926 62.8722 12.9926 65.0686C12.9926 66.8553 14.1634 68.3548 15.7608 68.8586V72.3073L7.67174 77.9288C7.58132 77.99 7.52336 78.0748 7.45612 78.1548C5.55268 76.0644 4.4491 73.3125 4.4491 70.4217C4.4491 68.3548 5.01248 66.3892 6.03724 64.6401C7.10604 65.4852 8.27685 66.2244 9.56591 66.7776C9.71197 66.8388 9.86731 66.8694 10.018 66.8694C10.4701 66.8694 10.899 66.6011 11.0845 66.1491C11.3326 65.5512 11.059 64.8614 10.4678 64.6072C6.63539 62.9617 3.87412 59.6472 2.81459 55.7041L9.13468 49.4518C9.59373 48.9974 9.60301 48.2512 9.15555 47.7874C8.7104 47.3213 7.97546 47.3119 7.5164 47.7639L2.37641 52.851C2.3625 52.6062 2.32308 52.3731 2.32308 52.126C2.32308 45.7182 6.80232 40.1391 12.9717 38.8585C13.6 38.7267 14.0034 38.1052 13.8759 37.4672C13.7484 36.8316 13.1317 36.4173 12.508 36.5492C11.103 36.8411 9.80239 37.3731 8.56898 38.0157C8.4461 37.3354 8.36496 36.6457 8.36496 35.9512C8.36496 33.5124 9.13932 31.2619 10.4307 29.4069L20.5438 37.9545V42.0129C17.8219 42.5614 15.7608 45.0026 15.7608 47.9263C15.7608 50.8454 17.8219 53.2818 20.5438 53.8327V59.6025C20.5438 59.9532 20.6991 60.2898 20.968 60.5135L25.7464 64.4918C25.9527 64.6637 26.2124 64.7578 26.4813 64.7578H37.1137L48.3419 71.8695V76.6011H40.9136C40.3734 73.8398 37.9692 71.7517 35.0943 71.7517C31.9969 71.7517 29.4767 74.1764 29.2055 77.2461L14.8241 92.458C14.7871 92.5004 14.7708 92.5499 14.7384 92.5946C11.5946 90.5795 9.48477 87.039 9.48477 82.9877ZM16.92 66.7047C16.0321 66.7047 15.311 65.9702 15.311 65.0709C15.311 64.1717 16.0321 63.4396 16.92 63.4396C17.808 63.4396 18.529 64.174 18.529 65.0709C18.529 65.9725 17.808 66.7047 16.92 66.7047ZM38.7134 77.7805C38.7134 79.8073 37.0905 81.4575 35.0943 81.4575C33.0981 81.4575 31.4706 79.8097 31.4706 77.7805C31.4706 75.756 33.0958 74.1082 35.0943 74.1082C37.0905 74.1105 38.7134 75.756 38.7134 77.7805ZM33.0726 101.641C29.0664 101.641 25.3731 99.7109 23.0291 96.5117C25.4821 96.0739 27.7866 94.9675 29.6761 93.2655C30.156 92.8347 30.2001 92.0908 29.7735 91.6035C29.3469 91.1162 28.6143 91.0692 28.1367 91.5047C26.2495 93.2066 23.8591 94.1624 21.3575 94.3107C21.0747 94.2048 20.7571 94.2118 20.4649 94.3507C19.2153 94.3225 18.0259 94.0706 16.9084 93.6586L29.6506 80.1793C30.5664 82.3121 32.6576 83.8092 35.0943 83.8092C37.9715 83.8092 40.3734 81.7188 40.916 78.9552H48.3419V97.7217C47.3798 97.6181 46.4339 97.3898 45.532 97.0273C47.0691 94.6026 47.92 91.8413 47.92 88.9152C47.92 88.2655 47.4007 87.7382 46.7608 87.7382C46.1209 87.7382 45.6015 88.2655 45.6015 88.9152C45.6015 91.8013 44.6718 94.5249 42.9145 96.7895C40.5195 99.8733 36.9329 101.641 33.0726 101.641ZM90.336 79.2989C90.2873 79.3036 90.2386 79.2894 90.1899 79.3012C89.8097 79.3813 89.5315 79.6496 89.3854 79.9862C87.5817 81.1656 85.5113 81.8106 83.3435 81.8106C82.7036 81.8106 82.1843 82.338 82.1843 82.9877C82.1843 83.6374 82.7036 84.1647 83.3435 84.1647C85.5066 84.1647 87.5956 83.6398 89.4874 82.6581C89.4897 82.7687 89.5199 82.8747 89.5199 82.9877C89.5199 89.1859 84.6117 94.2212 78.5374 94.3507C78.2453 94.2095 77.9276 94.2048 77.6448 94.3107C75.1409 94.16 72.7506 93.2019 70.868 91.5047C70.3881 91.0739 69.6577 91.1162 69.2311 91.6035C68.8069 92.0885 68.8486 92.8323 69.3285 93.2655C71.2157 94.9675 73.5203 96.0739 75.9755 96.5117C73.6316 99.7085 69.9383 101.641 65.932 101.641C59.0253 101.641 53.4031 95.9326 53.4031 88.9175C53.4031 81.9024 59.023 76.1939 65.932 76.1939C66.5719 76.1939 67.0912 75.6665 67.0912 75.0168C67.0912 74.3671 66.5719 73.8398 65.932 73.8398C57.7456 73.8398 51.0847 80.603 51.0847 88.9175C51.0847 91.9095 51.9564 94.6944 53.4425 97.0414C52.5499 97.3969 51.611 97.6205 50.6604 97.7241V61.5893C50.9154 57.5309 52.0445 54.7719 54.0221 53.3924C56.431 51.7069 59.4218 52.625 59.4519 52.6344C60.0617 52.8298 60.7085 52.4885 60.9033 51.8717C61.098 51.2526 60.7619 50.5911 60.1521 50.391C59.9898 50.3392 56.0879 49.1104 52.7308 51.4362C51.9286 51.9918 51.2446 52.7145 50.6581 53.5619V15.8829V11.1065C51.5275 9.68229 56.2803 2.35175 62.0903 2.35175C62.1066 2.35175 62.1251 2.35175 62.1413 2.35175C65.4753 2.37529 68.6794 4.89413 71.6794 9.79058C68.429 10.3838 65.6213 12.4507 64.0448 15.438C63.7805 15.2779 63.5023 15.1366 63.2078 15.026C60.9381 14.1644 58.3669 15.066 57.0894 17.1447C56.9016 17.4507 56.7486 17.7708 56.6327 18.0957C56.4125 18.7078 56.7231 19.381 57.3259 19.6046C57.9287 19.8283 58.5941 19.5128 58.812 18.9008C58.8746 18.7266 58.9581 18.5571 59.0578 18.39C59.7557 17.2529 61.1606 16.7633 62.4056 17.2341C63.1035 17.4931 63.6622 18.0157 63.9729 18.703C64.2859 19.3928 64.3137 20.1649 64.0517 20.8805C63.9358 21.203 63.7643 21.4973 63.5394 21.761C63.122 22.253 63.1754 22.9945 63.6622 23.4206C63.8802 23.6113 64.1491 23.7054 64.418 23.7054C64.7426 23.7054 65.0672 23.5665 65.2967 23.2958C65.7025 22.8179 66.0155 22.2789 66.2264 21.695C66.704 20.3909 66.6507 18.9785 66.0781 17.7167C65.99 17.5237 65.874 17.3518 65.7651 17.1753C67.1283 13.9996 70.1956 11.9492 73.613 11.9492C78.338 11.9492 82.1797 15.8499 82.1797 20.6451C82.1797 21.2643 82.0939 21.8669 81.971 22.4601C81.1457 22.3 80.2948 22.2082 79.423 22.2082C71.9623 22.2082 65.8926 28.3735 65.8926 35.9512C65.8926 36.0831 65.9274 36.2008 65.9668 36.3185C64.0031 36.5115 62.0787 37.2248 60.4512 38.5266C59.8785 38.9903 59.3615 39.4988 58.9141 40.0379C58.5014 40.5346 58.5617 41.2761 59.0508 41.6951C59.5377 42.1142 60.2727 42.0506 60.6854 41.5539C61.0354 41.1349 61.4435 40.7347 61.8933 40.3698C64.949 37.9216 69.3448 37.9993 72.3309 40.5581C75.8086 43.5454 76.2468 48.8468 73.307 52.3778C72.6648 53.1523 71.8974 53.7973 71.0233 54.2917C70.4646 54.6095 70.2652 55.3251 70.5782 55.8948C70.7891 56.2809 71.1833 56.4974 71.5913 56.4974C71.7838 56.4974 71.9785 56.448 72.157 56.3491C73.2745 55.7112 74.2599 54.8873 75.0806 53.8986C78.8458 49.3764 78.2847 42.585 73.8286 38.7573C72.1733 37.3425 70.1794 36.5586 68.1368 36.3373C68.1809 36.2149 68.2133 36.0901 68.2133 35.9512C68.2133 29.6706 73.2421 24.5623 79.4254 24.5623C85.611 24.5623 90.642 29.6706 90.642 35.9512C90.642 36.6504 90.5609 37.3354 90.438 38.0157C89.2069 37.3754 87.9086 36.8434 86.5036 36.5515C85.4811 36.3349 84.417 36.2243 83.3412 36.2243C82.7013 36.2243 82.182 36.7516 82.182 37.4013C82.182 38.051 82.7013 38.5784 83.3412 38.5784C84.257 38.5784 85.1635 38.6702 86.0353 38.8561C92.2046 40.1367 96.6816 45.7159 96.6816 52.1236C96.6816 59.5954 90.6976 65.6736 83.3458 65.6736C81.709 65.6689 80.1232 65.3746 78.6278 64.8002C78.4006 64.7178 78.1711 64.7296 77.9508 64.7814C77.6007 64.3741 77.246 63.9692 76.8333 63.6161C73.0102 60.3369 67.388 60.2381 63.4675 63.3737C62.918 63.8139 62.401 64.32 61.9257 64.8873C61.5107 65.3817 61.571 66.1232 62.0602 66.5446C62.5471 66.966 63.2797 66.9095 63.6947 66.408C64.0657 65.9655 64.4714 65.5676 64.9003 65.2239C67.963 62.7734 72.3495 62.8511 75.3356 65.4123C77.0211 66.8553 78.0505 68.8821 78.2337 71.1138C78.4192 73.3478 77.7375 75.5182 76.3163 77.232C75.6672 78.0088 74.8974 78.6539 74.0257 79.1482C73.4669 79.466 73.2652 80.1816 73.5782 80.749C73.7892 81.135 74.1857 81.354 74.5914 81.354C74.7838 81.354 74.9763 81.3045 75.1548 81.2057C76.27 80.5724 77.2576 79.7485 78.0853 78.7504C79.9076 76.5587 80.7816 73.7786 80.5428 70.9184C80.4455 69.7225 80.1139 68.595 79.6572 67.5286C80.8558 67.8228 82.0777 68.0276 83.3389 68.03C86.9719 68.03 90.3105 66.7564 92.9697 64.6425C93.9898 66.3892 94.5532 68.3548 94.5532 70.4217C94.5579 73.8822 92.9836 77.1402 90.336 79.2989Z" fill="#880202"/>
<path d="M38.3704 14.7646C40.5359 14.7646 42.2979 12.9755 42.2979 10.7768C42.2979 8.57813 40.5359 6.78905 38.3704 6.78905C36.205 6.78905 34.443 8.57813 34.443 10.7768C34.443 12.9755 36.205 14.7646 38.3704 14.7646ZM38.3704 9.14075C39.2584 9.14075 39.9794 9.87522 39.9794 10.7745C39.9794 11.6737 39.2584 12.4082 38.3704 12.4082C37.4825 12.4082 36.7614 11.6737 36.7614 10.7745C36.7614 9.87522 37.4825 9.14075 38.3704 9.14075Z" fill="#880202"/>
<path d="M37.9925 87.2862C35.8271 87.2862 34.0651 89.0753 34.0651 91.2716C34.0651 93.4727 35.8271 95.2594 37.9925 95.2594C40.1579 95.2594 41.92 93.4703 41.92 91.2716C41.92 89.0753 40.1579 87.2862 37.9925 87.2862ZM37.9925 92.9077C37.1045 92.9077 36.3835 92.1733 36.3835 91.274C36.3835 90.3748 37.1045 89.6426 37.9925 89.6426C38.8805 89.6426 39.6015 90.3771 39.6015 91.274C39.6015 92.1733 38.8782 92.9077 37.9925 92.9077Z" fill="#880202"/>
</svg>
